<svg xmlns="http://www.w3.org/2000/svg" viewBox="0 0 1080 1080">
    <circle stroke="#231F20" stroke-width="108" cx="540" cy="540" r="486" fill="none"/>
    <!-- Ellipses -->
    <g fill="#231F20">
        <path d="M590.2 699.1c0-9.4 2.5-16.6 7.6-21.4 5.1-4.8 12.4-7.2 22.1-7.2 9.3 0 16.5 2.5 21.7 7.4 5.1 4.9 7.7 12 7.7 21.2 0 8.9-2.6 15.9-7.8 21-5.2 5.1-12.4 7.7-21.6 7.7-9.4 0-16.7-2.5-21.9-7.5-5.2-5.1-7.8-12.1-7.8-21.2z"/>
        <path d="M670.7 699.1c0-9.4 2.5-16.6 7.6-21.4 5.1-4.8 12.4-7.2 22.1-7.2 9.3 0 16.5 2.5 21.7 7.4 5.1 4.9 7.7 12 7.7 21.2 0 8.9-2.6 15.9-7.8 21-5.2 5.1-12.4 7.7-21.6 7.7-9.4 0-16.7-2.5-21.9-7.5-5.2-5.1-7.8-12.1-7.8-21.2z"/>
        <path d="M750.1 699.1c0-9.4 2.5-16.6 7.6-21.4 5.1-4.8 12.4-7.2 22.1-7.2 9.3 0 16.5 2.5 21.7 7.4 5.1 4.9 7.7 12 7.7 21.2 0 8.9-2.6 15.9-7.8 21-5.2 5.1-12.4 7.7-21.6 7.7-9.4 0-16.7-2.5-21.9-7.5-5.2-5.1-7.8-12.1-7.8-21.2z"/>
    </g>
    <!-- Greater Than -->
    <path fill="#231F20" d="M278.8 603.2l172.7-70.2-172.6-78.8v-82.7l281.5 140.9v47.9l-281.5 125v-82.1z"/>
</svg>
